<svg width="24" height="24" viewBox="0 0 24 24" fill="none" xmlns="http://www.w3.org/2000/svg">
<path d="M16.044 12.6503L15.6881 12.3202L16.044 12.6503ZM11.4672 8.07351L11.7973 8.42944L11.4672 8.07351ZM18.2171 7.12494L18.6985 7.1879L18.2171 7.12494ZM16.9926 5.90041L17.0555 6.38176L16.9926 5.90041ZM8.40039 12.5479L8.83627 12.7616L8.83627 12.7616L8.40039 12.5479ZM11.5696 15.7171L11.356 15.2813L11.5696 15.7171ZM9.52205 10.934C9.33247 10.7444 9.02511 10.7444 8.83553 10.934C8.64595 11.1236 8.64595 11.431 8.83553 11.6205L9.52205 10.934ZM12.497 15.282C12.6866 15.4716 12.9939 15.4716 13.1835 15.282C13.3731 15.0924 13.3731 14.7851 13.1835 14.5955L12.497 15.282ZM8.37784 16.4262C8.56742 16.2366 8.56742 15.9293 8.37784 15.7397C8.18827 15.5501 7.8809 15.5501 7.69132 15.7397L8.37784 16.4262ZM5.86058 17.5704C5.67101 17.76 5.67101 18.0674 5.86058 18.2569C6.05016 18.4465 6.35753 18.4465 6.54711 18.2569L5.86058 17.5704ZM7.00479 15.0532C7.19437 14.8636 7.19437 14.5562 7.00479 14.3666C6.81521 14.1771 6.50785 14.1771 6.31827 14.3666L7.00479 15.0532ZM5.4029 15.282C5.21332 15.4716 5.21332 15.779 5.4029 15.9685C5.59248 16.1581 5.89985 16.1581 6.08943 15.9685L5.4029 15.282ZM9.75089 17.7993C9.94047 17.6097 9.94047 17.3023 9.75089 17.1127C9.56132 16.9232 9.25395 16.9232 9.06437 17.1127L9.75089 17.7993ZM8.149 18.0281C7.95942 18.2177 7.95942 18.5251 8.149 18.7146C8.33858 18.9042 8.64595 18.9042 8.83553 18.7146L8.149 18.0281ZM11.0553 18.0052L11.5359 17.9366L11.5359 17.9366L11.0553 18.0052ZM14.3964 15.7626L14.877 15.6939L14.3964 15.7626ZM6.1123 13.0623L6.18095 12.5817L6.18095 12.5817L6.1123 13.0623ZM8.35495 9.72116L8.28629 10.2017L8.28629 10.2017L8.35495 9.72116ZM10.5078 15.1236L8.99394 13.6097L8.30742 14.2963L9.82127 15.8101L10.5078 15.1236ZM15.6881 12.3202C14.4624 13.6418 12.4723 14.734 11.356 15.2813L11.7833 16.153C12.9097 15.6008 15.0429 14.4437 16.3999 12.9805L15.6881 12.3202ZM8.83627 12.7616C9.38356 11.6452 10.4758 9.65513 11.7973 8.42944L11.1371 7.71759C9.67386 9.07467 8.51671 11.2078 7.96451 12.3342L8.83627 12.7616ZM17.7358 7.06199C17.5391 8.5658 17.0165 10.8879 15.6881 12.3202L16.3999 12.9805C17.9505 11.3087 18.4988 8.71479 18.6985 7.1879L17.7358 7.06199ZM11.7973 8.42944C13.2296 7.10099 15.5517 6.57844 17.0555 6.38176L16.9296 5.41907C15.4027 5.61876 12.8089 6.16706 11.1371 7.71759L11.7973 8.42944ZM18.6985 7.1879C18.8351 6.1433 17.9742 5.28245 16.9296 5.41907L17.0555 6.38176C17.4678 6.32784 17.7897 6.64971 17.7358 7.06199L18.6985 7.1879ZM8.99394 13.6097C8.75887 13.3747 8.70144 13.0366 8.83627 12.7616L7.96451 12.3342C7.63557 13.0052 7.79751 13.7864 8.30742 14.2963L8.99394 13.6097ZM9.82127 15.8101C10.3312 16.32 11.1124 16.482 11.7833 16.153L11.356 15.2813C11.0809 15.4161 10.7429 15.3587 10.5078 15.1236L9.82127 15.8101ZM8.83553 11.6205L12.497 15.282L13.1835 14.5955L9.52205 10.934L8.83553 11.6205ZM7.69132 15.7397L5.86058 17.5704L6.54711 18.2569L8.37784 16.4262L7.69132 15.7397ZM6.31827 14.3666L5.4029 15.282L6.08943 15.9685L7.00479 15.0532L6.31827 14.3666ZM9.06437 17.1127L8.149 18.0281L8.83553 18.7146L9.75089 17.7993L9.06437 17.1127ZM12.7258 8.87443C12.0307 9.56956 12.0307 10.6966 12.7258 11.3917L13.4124 10.7052C13.0964 10.3892 13.0964 9.87692 13.4124 9.56096L12.7258 8.87443ZM12.7258 11.3917C13.421 12.0868 14.548 12.0868 15.2431 11.3917L14.5566 10.7052C14.2406 11.0211 13.7283 11.0211 13.4124 10.7052L12.7258 11.3917ZM15.2431 11.3917C15.9382 10.6966 15.9382 9.56956 15.2431 8.87443L14.5566 9.56096C14.8725 9.87692 14.8725 10.3892 14.5566 10.7052L15.2431 11.3917ZM15.2431 8.87443C14.548 8.17931 13.421 8.17931 12.7258 8.87443L13.4124 9.56096C13.7283 9.245 14.2406 9.24499 14.5566 9.56096L15.2431 8.87443ZM13.87 15.9685L11.8105 18.0281L12.497 18.7146L14.5566 16.6551L13.87 15.9685ZM11.5359 17.9366L11.2613 16.0143L10.3001 16.1516L10.5747 18.0739L11.5359 17.9366ZM13.7327 14.5497L13.9158 15.8312L14.877 15.6939L14.6939 14.4124L13.7327 14.5497ZM11.8105 18.0281C11.7162 18.1224 11.5547 18.0686 11.5359 17.9366L10.5747 18.0739C10.7067 18.9979 11.837 19.3746 12.497 18.7146L11.8105 18.0281ZM14.5566 16.6551C14.8087 16.403 14.9274 16.0469 14.877 15.6939L13.9158 15.8312C13.923 15.8816 13.9061 15.9325 13.87 15.9685L14.5566 16.6551ZM7.46246 9.56097L5.40289 11.6205L6.08941 12.3071L8.14899 10.2475L7.46246 9.56097ZM6.04364 13.5428L7.96591 13.8174L8.10322 12.8563L6.18095 12.5817L6.04364 13.5428ZM9.70511 9.42367L8.4236 9.24059L8.28629 10.2017L9.56781 10.3848L9.70511 9.42367ZM5.40289 11.6205C4.74287 12.2806 5.11962 13.4108 6.04364 13.5428L6.18095 12.5817C6.04895 12.5628 5.99512 12.4014 6.08941 12.3071L5.40289 11.6205ZM8.14899 10.2475C8.185 10.2115 8.23587 10.1945 8.28629 10.2017L8.4236 9.24059C8.07065 9.19017 7.71457 9.30887 7.46246 9.56097L8.14899 10.2475Z" fill="white"/>
</svg>
